<svg version="1.2" xmlns="http://www.w3.org/2000/svg" viewBox="0 0 27 24" width="27" height="24"><style>.a{fill:#ed1c24}.b{opacity:.15}.c{opacity:.3;fill:#fff}</style><path class="a" d="m21.7 0.8q-0.6-0.2-1.3-0.2c-5.5-0.6-6.9 4.7-6.9 4.7 0 0-1.4-5.3-6.9-4.7-5.2 0.5-7.9 6.9-4.5 12.4 1 1.5 2.5 3.2 4.1 4.8 3.2 3.1 6.8 5.7 7.3 5.7 0.7 0 8.5-5.8 11.4-10.5 3.1-5 1.1-10.8-3.2-12.2z"/><path class="b" d="m24.9 13c3.1-5 1.1-10.8-3.2-12.2 0 0 4.3 4.1 1.8 8.4-2.4 4.2-10.7 9.5-11.8 9.7-1 0.1-3.4-0.1-5.5-1.1 3.2 3.1 6.8 5.7 7.3 5.7 0.7 0 8.5-5.8 11.4-10.5z"/><path class="c" d="m5.6 5.6c1-1.2 1.3-2.6 0.7-3.2-0.6-0.5-2 0.1-3 1.3-1 1.3-1.4 2.7-0.8 3.2 0.7 0.5 2 0 3.1-1.3z"/></svg>