<svg width="50" height="50" viewBox="0 0 50 50" fill="none" xmlns="http://www.w3.org/2000/svg">
<g clip-path="url(#clip0_13_495)">
<path d="M42.8545 24.7285C42.8545 28.2154 41.8075 31.624 39.846 34.5232C37.8845 37.4224 35.0965 39.6821 31.8346 41.0165C28.5727 42.3509 24.9834 42.7 21.5206 42.0197C18.0577 41.3395 14.8769 39.6604 12.3804 37.1948C9.88384 34.7292 8.18367 31.5878 7.49487 28.168C6.80607 24.7481 7.15959 21.2033 8.51071 17.9818C9.86184 14.7604 12.1499 12.007 15.0855 10.0698C18.0211 8.13256 21.4725 7.09858 25.0032 7.09858C29.7376 7.09858 34.2782 8.95602 37.626 12.2623C40.9737 15.5685 42.8545 20.0528 42.8545 24.7285Z" fill="#ED1C24"/>
<path d="M18.8633 42.9892L18.1134 44.6266L17.797 45.2631L17.4748 45.1011C17.3948 44.9352 17.2835 44.7859 17.1467 44.6613L17.6623 43.5446C17.586 43.3235 17.4551 43.1246 17.2815 42.966C17.1752 42.9398 17.0629 42.9521 16.9651 43.0007L16.0863 43.3016C15.7605 43.4277 15.3985 43.4277 15.0728 43.3016C14.9113 43.2197 14.7689 43.1053 14.6549 42.9658C14.5409 42.8263 14.4577 42.6647 14.4107 42.4916L14.7564 42.3238C14.8493 42.431 14.9244 42.5521 14.979 42.6825C15.0184 42.7559 15.0827 42.8133 15.1606 42.8445C15.3192 42.8763 15.4825 42.8763 15.641 42.8445C15.893 42.8445 16.0277 42.7751 16.0511 42.7346C16.1097 42.5957 16.016 42.4221 15.7641 42.2023C15.5189 41.9946 15.2446 41.8231 14.9497 41.6931C15.0127 41.564 15.1002 41.4481 15.2075 41.3517L14.7212 41.1145L14.3932 40.9698L14.5806 40.5648L19.7948 42.8792L19.6074 43.2843L18.8633 42.9892ZM18.0958 42.642L16.4202 41.8898C16.4883 42.1164 16.4883 42.3576 16.4202 42.5841C16.5878 42.5996 16.7565 42.5996 16.9241 42.5841C17.1054 42.5695 17.2876 42.5695 17.4689 42.5841C17.627 42.7787 17.759 42.9926 17.8615 43.2206C17.898 43.1677 17.9293 43.1115 17.9552 43.0528C17.9552 42.9892 18.0138 42.8503 18.0958 42.642Z" fill="#32A149"/>
<path d="M22.7534 43.7761L22.2496 46.2293L21.8805 46.1599C21.0647 45.3166 19.9895 44.7633 18.8223 44.5861L18.7696 43.886C19.1328 43.8397 19.6542 43.8108 20.3338 43.7934C21.0134 43.7761 21.5817 43.7529 21.8981 43.7298V43.6198L18.5938 42.9602L18.6817 42.5378L23.7377 43.5273L23.6498 43.9554L22.7534 43.7761ZM20.1229 46.021C19.9709 45.9953 19.8256 45.9403 19.6952 45.859C19.5195 45.7549 19.4492 45.6276 19.4785 45.4887C19.5312 45.2283 19.7655 45.1416 20.1815 45.2226C20.3306 45.2488 20.4724 45.306 20.5975 45.3903C20.6649 45.4209 20.7213 45.471 20.759 45.5341C20.7967 45.5972 20.8139 45.6702 20.8084 45.7433C20.7932 45.806 20.7605 45.8632 20.7138 45.9082C20.6671 45.9533 20.6085 45.9843 20.5447 45.9979C20.4087 46.0427 20.2631 46.0506 20.1229 46.021ZM21.7809 44.2852C21.195 44.2852 20.6443 44.3199 20.1229 44.372C20.6402 44.65 21.1221 44.988 21.5583 45.3788L21.7809 44.2852Z" fill="#32A149"/>
<path d="M26.8193 43.7471V43.9207C27.2149 43.9048 27.6105 43.9517 27.9911 44.0596C28.4832 44.21 28.741 44.4588 28.7644 44.8175C28.7644 44.9969 28.659 45.1473 28.4246 45.2804C28.2443 45.3784 28.0442 45.4357 27.8387 45.4482C27.7051 45.46 27.5705 45.4402 27.4462 45.3903C27.389 45.371 27.3379 45.3372 27.2981 45.2923C27.2583 45.2473 27.2311 45.1929 27.2192 45.1343C27.2073 45.0758 27.2112 45.0151 27.2305 44.9585C27.2498 44.9019 27.2838 44.8513 27.329 44.8117C27.419 44.7404 27.5301 44.6998 27.6454 44.696C27.8344 44.6977 28.0192 44.7518 28.1786 44.8522C28.2489 44.8175 28.284 44.7886 28.2781 44.7481C28.2781 44.4704 27.8856 44.3546 27.1474 44.3952H26.8428L26.9424 46.1888H26.5674C26.1638 45.9065 25.7139 45.6951 25.2375 45.5639C24.68 45.4534 24.1129 45.3972 23.5444 45.3961L23.1167 44.8175C24.0888 44.5958 25.0489 44.3254 25.9933 44.0075C25.9871 43.9421 25.9871 43.8762 25.9933 43.8108L22.7359 43.9901L22.6949 43.5678L29.3913 43.1974V43.6198L26.8193 43.7471ZM26.0812 44.9332C26.0812 44.968 26.0812 44.8465 26.046 44.5745C25.5445 44.6861 25.0496 44.8252 24.5638 44.9911C24.9563 45.1068 25.4777 45.2804 26.1104 45.5234L26.0812 44.9332Z" fill="#32A149"/>
<path d="M30.0709 43.1627L30.6568 45.5639L30.3463 45.6392C30.1682 45.5314 29.9681 45.4642 29.7604 45.4424L29.2273 43.3595L28.4246 43.5678L28.3133 43.1454L29.1628 42.9313L29.0339 42.4453L29.3444 42.3527L29.7955 42.7751L30.7857 42.5263L30.8911 42.9545L30.0709 43.1627Z" fill="#32A149"/>
<path d="M34.0899 41.6931L35.08 44.0075L34.7285 44.1521C33.5722 43.9085 32.3667 44.051 31.3012 44.5572L30.8618 43.9786C31.1313 43.7413 31.5473 43.4 32.098 43.0297C32.6487 42.6594 33.1057 42.3006 33.3517 42.1039L33.3049 42.0055L30.1822 43.3074L30.0065 42.9024L34.7402 40.9178L34.916 41.317L34.0899 41.6931ZM33.5685 42.6362C33.1138 42.9497 32.6739 43.2837 32.2503 43.6372C32.8342 43.5694 33.4241 43.5694 34.0079 43.6372L33.5685 42.6362ZM33.2111 45.0085C33.0691 45.0728 32.9161 45.1101 32.76 45.1184C32.6832 45.1326 32.6037 45.1223 32.5332 45.089C32.4627 45.0557 32.4046 45.0012 32.3675 44.9333C32.262 44.6902 32.4085 44.4819 32.7952 44.3199C32.9342 44.2614 33.0834 44.2299 33.2346 44.2274C33.3074 44.2201 33.3807 44.235 33.4446 44.2702C33.5085 44.3054 33.5599 44.3591 33.5919 44.4241C33.6176 44.4831 33.6247 44.5483 33.6121 44.6113C33.5996 44.6743 33.568 44.7321 33.5216 44.777C33.4379 44.8729 33.3311 44.9465 33.2111 44.9911V45.0085Z" fill="#32A149"/>
<path d="M3.93546 20.7188L6.12659 20.985L6.03871 21.7082L5.45285 21.633L4.90214 21.5694C4.75365 21.5339 4.59848 21.5359 4.45102 21.5754C4.30355 21.6148 4.16854 21.6904 4.05849 21.795C3.87991 22.0473 3.77641 22.344 3.7597 22.6514C3.71283 23.0217 3.7597 23.23 3.82414 23.23H3.85344V23.1663V23.1027V22.9464C3.84961 22.8925 3.84961 22.8384 3.85344 22.7844C3.87835 22.6168 3.94475 22.4578 4.04677 22.3216C4.17566 22.1364 4.31041 22.0496 4.45102 22.067C4.59163 22.0843 4.7791 22.2868 4.83183 22.6456C4.87544 22.9778 4.87544 23.3143 4.83183 23.6465L4.38657 23.9069C4.38657 23.8143 4.38657 23.7276 4.42759 23.6408V23.4961C4.50961 22.8539 4.45688 22.5183 4.27526 22.4951C4.09364 22.472 4.09364 22.5819 4.06435 22.8018C4.04474 23.0417 4.09344 23.2822 4.20496 23.4961C4.03506 23.7449 3.85344 23.8606 3.67182 23.8375C3.57878 23.8243 3.49123 23.786 3.41885 23.7268C3.34648 23.6676 3.2921 23.5897 3.26171 23.5019C3.18257 23.332 3.15412 23.1433 3.17969 22.958C3.29638 22.389 3.57244 21.8638 3.97647 21.4421L3.44919 21.3784L3.63667 19.8799L4.0292 19.9261L3.93546 20.7188Z" fill="#29A74A"/>
<path d="M5.31224 16.281L7.39792 16.9926L7.26317 17.3456C6.97544 17.4285 6.6952 17.5349 6.42538 17.6638C6.10107 17.838 5.84833 18.1183 5.71063 18.4565H5.7575C5.82969 18.4793 5.89334 18.5229 5.9403 18.5817C5.98727 18.6404 6.01542 18.7117 6.02114 18.7863C6.03728 18.9354 6.0172 19.0862 5.96255 19.226C5.90339 19.3989 5.80976 19.5582 5.68719 19.6947C5.52315 19.8741 5.37083 19.9377 5.2185 19.8857C5.12712 19.8485 5.04919 19.785 4.99485 19.7035C4.94051 19.6219 4.91229 19.5261 4.91385 19.4286C4.88813 19.2338 4.90818 19.0358 4.97244 18.85C5.11354 18.5376 5.31907 18.2578 5.57588 18.0283C5.74578 17.8721 6.00356 17.658 6.34336 17.3861L5.06032 16.9464L3.99404 19.9898L3.61909 19.8625L5.23608 15.2337L5.61103 15.361L5.31224 16.281ZM7.64398 12.2771L9.51289 13.4343L9.32542 13.7236L8.91531 13.9376L8.21227 13.4805L7.91934 13.2954C7.82566 13.2358 7.71278 13.2131 7.60297 13.2317L7.49166 14.8287L6.98781 15.2337C7.04054 14.8345 7.04054 14.6262 6.98781 14.5915C6.93509 14.5567 6.81791 14.5915 6.73589 14.713C6.65387 14.8345 6.64215 14.875 6.57185 15.008C6.50155 15.1411 6.44882 15.2395 6.40781 15.3031C6.25548 15.5461 6.09144 15.6098 5.90982 15.4999C5.7282 15.3899 5.73406 15.199 5.79851 14.8518C5.8332 14.6101 5.91264 14.3767 6.03285 14.1633C6.3591 13.6634 6.81951 13.2628 7.36277 13.0061C7.22216 12.9193 7.06984 12.8209 6.91751 12.711L7.73186 11.4092L8.05995 11.6117L7.64398 12.2771ZM7.05812 14.0418V13.4632C6.82195 13.5831 6.62796 13.7706 6.50155 14.0013C6.42795 14.1205 6.37081 14.249 6.33165 14.3832C6.27306 14.5741 6.28478 14.7014 6.37266 14.7708L6.42538 14.7419C6.46054 14.7072 6.57185 14.5336 6.75933 14.2385C6.79148 14.18 6.8388 14.1309 6.89644 14.0963C6.95408 14.0618 7.01999 14.043 7.08741 14.0418H7.05812Z" fill="#29A74A"/>
<path d="M9.51875 13.9203C9.38534 13.937 9.25695 13.9811 9.1419 14.0499C9.02685 14.1187 8.9277 14.2105 8.85087 14.3195C8.67793 14.5604 8.53068 14.8183 8.41147 15.0891C8.29052 15.3608 8.14337 15.6204 7.97207 15.8644C7.81451 16.0587 7.61414 16.2151 7.38621 16.3215C7.28216 16.3901 7.15983 16.4268 7.03469 16.4268C6.90955 16.4268 6.78722 16.3901 6.68317 16.3215L6.56599 16.2347L6.79448 15.9454C6.92831 16.0037 7.07793 16.0166 7.21995 15.982C7.36198 15.9475 7.48843 15.8674 7.57954 15.7544C7.72874 15.5529 7.85821 15.3379 7.96621 15.1122C8.07634 14.8968 8.20575 14.6915 8.35288 14.4989C8.5274 14.2726 8.73933 14.0769 8.97976 13.9203L8.84501 13.8103L9.23754 13.3127L9.72381 13.6888L9.51875 13.9203ZM10.4327 9.29148C10.733 9.25829 11.0144 9.13047 11.2353 8.92696C11.3395 8.82136 11.4318 8.70497 11.5107 8.5798H12.202C12.0774 8.83555 12.0484 9.12655 12.12 9.40141C12.1969 9.62082 12.3254 9.8191 12.4949 9.98001C12.6437 10.0891 12.8075 10.1768 12.9812 10.2404L12.8465 10.5181C12.446 10.4523 12.069 10.287 11.7509 10.0379C11.6135 9.83439 11.5069 9.61218 11.4345 9.37826C11.2334 9.48941 11.0188 9.57495 10.7959 9.63285C10.6096 9.66828 10.417 9.65227 10.2394 9.58656C10.1113 9.78167 10.0126 9.99411 9.94644 10.2172C9.87613 10.4545 9.88785 10.6165 9.97573 10.709C9.98782 10.7236 10.003 10.7353 10.0202 10.7433C10.0375 10.7514 10.0563 10.7555 10.0753 10.7555C10.0944 10.7555 10.1132 10.7514 10.1304 10.7433C10.1476 10.7353 10.1628 10.7236 10.1749 10.709C10.3228 10.4957 10.4043 10.2443 10.4093 9.9858C10.5718 9.92763 10.7473 9.91467 10.9168 9.94835C11.0862 9.98202 11.243 10.061 11.3701 10.1767C11.4446 10.2518 11.4991 10.344 11.5287 10.4449C11.5584 10.5459 11.5623 10.6525 11.54 10.7553C11.4788 11.0398 11.3268 11.2973 11.1064 11.4902C10.9237 11.691 10.6926 11.8429 10.4345 11.932C10.1764 12.021 9.89966 12.0441 9.63007 11.9993C9.24105 11.8734 8.86765 11.7045 8.51693 11.4959L8.804 11.1546C9.09675 11.3705 9.447 11.4971 9.81169 11.5191C10.1824 11.4832 10.5246 11.3069 10.7666 11.0273C10.8615 10.9403 10.9355 10.8336 10.9834 10.7148C11.0161 10.6602 11.0308 10.597 11.0256 10.5338C11.0203 10.4706 10.9954 10.4105 10.9541 10.3619C10.9257 10.3287 10.8895 10.3029 10.8487 10.2867C10.7976 10.455 10.705 10.6081 10.5792 10.7322C10.4845 10.8348 10.3697 10.9174 10.2419 10.975C10.114 11.0327 9.97564 11.0643 9.83512 11.0678C9.73939 11.0633 9.64551 11.04 9.559 10.9993C9.47248 10.9586 9.39507 10.9012 9.33128 10.8306C9.26023 10.6993 9.22776 10.5509 9.23754 10.4024L7.94864 11.629L7.67914 11.3513L11.9384 7.30109L12.2137 7.57882L10.4327 9.29148Z" fill="#29A74A"/>
<path d="M13.3972 7.02915L14.6216 8.85752L14.3873 9.00796C14.209 8.97692 14.0266 8.97692 13.8483 9.00796L12.7879 7.4226L12.1551 7.83919L11.9384 7.50939L12.6063 7.09279L12.3602 6.7167L12.5887 6.5547L13.0925 6.77456L13.8483 6.28275L14.0651 6.60677L13.3972 7.02915Z" fill="#29A74A"/>
<path d="M13.7428 6.60098L13.5905 6.24804L18.752 4.01464L18.9102 4.36759L13.7428 6.60098ZM17.4807 7.41681C16.967 7.66932 16.3785 7.73093 15.8227 7.59039C15.2758 7.41823 14.8047 7.06722 14.4869 6.5952L14.7505 6.39847C15.0172 6.71377 15.3513 6.96671 15.7289 7.13908C15.9687 7.21946 16.2223 7.25165 16.4748 7.23376C16.7274 7.21588 16.9738 7.14827 17.1994 7.03493C17.4489 6.92628 17.6786 6.7777 17.879 6.5952C18.1427 6.35219 18.2306 6.12653 18.1368 5.92402C18.0984 5.83713 18.0354 5.76304 17.9554 5.71069C17.8754 5.65834 17.7817 5.62995 17.6857 5.62894C17.4856 5.60774 17.2833 5.6397 17.0998 5.72151C16.9007 5.8083 16.8069 5.87773 16.8303 5.92981C16.8538 5.98188 16.9007 5.96452 17.0178 5.98188C17.135 5.99924 17.1994 6.03396 17.2229 6.08603C17.247 6.15319 17.2492 6.22613 17.2293 6.29461C17.2093 6.3631 17.1682 6.42369 17.1116 6.46791C17.0098 6.57399 16.8858 6.65691 16.7483 6.71092C16.5918 6.78667 16.4186 6.82248 16.2445 6.81507C16.1584 6.81327 16.0748 6.78654 16.0039 6.73819C15.9331 6.68985 15.8782 6.62201 15.8461 6.54312C15.7641 6.35797 15.8461 6.14389 16.1039 5.91245C16.292 5.737 16.5102 5.59594 16.7483 5.49586C17.0737 5.35259 17.43 5.29098 17.7853 5.31649C17.9606 5.30503 18.1355 5.34437 18.2885 5.42968C18.4415 5.51499 18.5659 5.64256 18.6465 5.79673C18.7084 5.96736 18.7157 6.15263 18.6675 6.3275C18.6193 6.50237 18.5179 6.65842 18.377 6.77456C18.1345 7.0563 17.8271 7.27653 17.4807 7.41681Z" fill="#29A74A"/>
<path d="M22.9351 3.76006L23.1343 4.91726L22.5484 5.01562L22.3902 4.66267C22.035 4.52145 21.654 4.45446 21.2712 4.46595C21.2894 4.50483 21.3031 4.54558 21.3122 4.58745C21.3552 4.80347 21.2204 4.93654 20.908 4.98669C20.7686 5.01282 20.6255 5.01282 20.4861 4.98669C20.4173 4.97684 20.3531 4.94673 20.3019 4.90027C20.2507 4.85382 20.2149 4.7932 20.1991 4.72632C20.1581 4.46016 20.3338 4.29237 20.7322 4.22872C21.2484 4.16893 21.7711 4.19434 22.2789 4.30394L22.2086 3.90471L18.875 4.45438L18.8106 4.06671L24.265 3.14674L24.3236 3.50547L22.9351 3.76006Z" fill="#29A74A"/>
<path d="M23.2573 6.06867H22.9116L22.7827 6.0166H22.4957C22.2598 6.03159 22.025 6.06057 21.7926 6.10339C21.5598 6.14203 21.3252 6.16907 21.0896 6.18439C20.8309 6.20604 20.5703 6.17854 20.3221 6.10339C20.1986 6.07616 20.0873 6.01014 20.0049 5.91523C19.9225 5.82031 19.8735 5.7016 19.8651 5.57686C19.8613 5.50941 19.8613 5.4418 19.8651 5.37435H20.3045C20.3045 5.72151 20.4803 5.88931 20.7791 5.87773C20.9255 5.87773 21.1365 5.84302 21.4177 5.80252C21.6289 5.76405 21.8421 5.73701 22.0563 5.72151C22.2069 5.71721 22.3572 5.73675 22.5015 5.77937C22.4944 5.67727 22.4944 5.57481 22.5015 5.47271V5.16606C22.5051 5.11315 22.4964 5.06013 22.4761 5.01106C22.4557 4.962 22.4243 4.91819 22.3841 4.88299C22.344 4.8478 22.2962 4.82216 22.2444 4.80804C22.1927 4.79392 22.1383 4.7917 22.0856 4.80154H21.9801L21.7809 4.95776C22.1012 4.95776 22.2652 5.01562 22.273 5.13134C22.2733 5.17375 22.262 5.21544 22.2403 5.25208C22.2187 5.28871 22.1875 5.31895 22.15 5.33964C22.0785 5.3928 21.9932 5.42489 21.9039 5.43221C21.4645 5.43221 21.2419 5.33385 21.2302 5.08505C21.2244 5.02087 21.2335 4.95621 21.2568 4.89604C21.2802 4.83587 21.3172 4.78177 21.3649 4.73789C21.5031 4.62929 21.6628 4.55046 21.8336 4.50645C22.151 4.48634 22.4696 4.50382 22.7827 4.55853C22.9014 4.5785 23.0094 4.63839 23.0884 4.72803C23.1674 4.81767 23.2126 4.93154 23.2163 5.05033V5.79094C23.2403 5.88174 23.254 5.97489 23.2573 6.06867ZM25.2902 3.73113L25.2551 5.90088H24.9622C24.8395 5.75225 24.6856 5.63181 24.511 5.54793V5.28756V3.71955L23.7377 3.70798V3.32611H24.6809L25.009 3.1236C24.5964 2.77888 24.0731 2.59022 23.5326 2.59128C23.0541 2.57775 22.5825 2.70678 22.1793 2.96159L21.9157 2.79958C22.5408 2.46355 23.2325 2.2661 23.9428 2.22098C24.2956 2.22917 24.6428 2.30996 24.9622 2.45821C25.2493 2.59428 25.5237 2.75498 25.7824 2.93844L25.1262 3.34346H26.0577V3.72534L25.2902 3.73113ZM31.4946 4.71475L30.9731 6.85557L30.5747 6.75721C29.8816 5.97608 28.9465 5.44312 27.9149 5.24127V4.62796C28.3871 4.59922 28.8606 4.59922 29.3327 4.62796H30.7622V4.54695L27.4638 3.74848L27.5517 3.37239L32.3558 4.5296L32.262 4.90568L31.4946 4.71475ZM30.6333 5.09662C30.0006 5.07348 29.4792 5.07348 29.0691 5.09662C29.5519 5.35688 29.9972 5.67992 30.3931 6.0571L30.6333 5.09662Z" fill="#29A74A"/>
<path d="M33.2053 5.42643L32.3675 7.43995L32.1039 7.33581C32.0355 7.17071 31.9339 7.02109 31.8051 6.89607L32.5315 5.16027L31.8285 4.87676L31.9808 4.51224L32.6956 4.80154L32.8713 4.38494L33.1408 4.48331L33.2346 5.02141L34.0665 5.36278L33.92 5.72151L33.2053 5.42643ZM35.2968 9.29148C35.1738 9.10632 34.998 8.87488 34.7695 8.58558C34.5901 8.35068 34.3943 8.12835 34.1837 7.92019C33.9358 7.69319 33.6714 7.48434 33.3928 7.2953L33.8966 6.79771L34.4122 7.30109C34.68 7.61264 34.9155 7.94991 35.1152 8.30786C35.3324 8.66847 35.528 9.04134 35.7011 9.42455L35.2968 9.29148ZM34.4883 6.97707C34.309 6.88029 34.1499 6.7507 34.0196 6.5952C33.9441 6.52859 33.8924 6.4396 33.8723 6.34155C33.8522 6.24351 33.8649 6.14168 33.9083 6.05131C33.9762 5.94935 34.0729 5.86926 34.1864 5.82093C34.2999 5.7726 34.4252 5.75816 34.5469 5.77937C34.7968 5.78859 35.0412 5.85389 35.2617 5.97031C35.4384 6.06095 35.5941 6.18708 35.7186 6.34061C35.7849 6.41112 35.8273 6.50028 35.8399 6.59568C35.8525 6.69108 35.8347 6.78799 35.7889 6.87293C35.7278 6.96981 35.6407 7.0481 35.5373 7.09916C35.4339 7.15021 35.3182 7.17204 35.2031 7.16223C34.9526 7.1629 34.7062 7.09909 34.4883 6.97707ZM34.8691 6.10917C34.8248 6.09883 34.7787 6.09883 34.7344 6.10917C34.7142 6.10663 34.6937 6.10961 34.6751 6.11777C34.6565 6.12593 34.6405 6.13897 34.6289 6.15546C34.6041 6.21208 34.5913 6.27313 34.5913 6.33483C34.5913 6.39653 34.6041 6.45758 34.6289 6.51419C34.6587 6.63701 34.7313 6.74556 34.834 6.82085L34.9922 6.86135H35.1211C35.1211 6.86135 35.1211 6.68777 35.0508 6.48526C34.9804 6.28275 34.9101 6.1381 34.8691 6.10917ZM36.533 8.92117C36.5841 8.87627 36.6453 8.84394 36.7114 8.82685C36.7776 8.80975 36.847 8.80837 36.9138 8.82281C37.0501 8.85289 37.1781 8.91214 37.2888 8.99639C37.3923 9.08167 37.4729 9.19102 37.5231 9.31462C37.5538 9.37451 37.5663 9.44192 37.559 9.50867C37.5517 9.57542 37.525 9.63865 37.4821 9.69071C37.2888 9.92215 37.0193 9.89901 36.6795 9.61549C36.4356 9.41989 36.2545 9.1586 36.158 8.86331C36.0987 8.72351 36.0778 8.57074 36.0973 8.42039C36.1169 8.27005 36.1762 8.12746 36.2694 8.00698C36.3318 7.92953 36.4111 7.86694 36.5013 7.82387C36.5916 7.7808 36.6905 7.75835 36.7908 7.75818C36.9939 7.76931 37.1876 7.84663 37.3415 7.97805C37.4702 8.09875 37.5807 8.2371 37.6696 8.38886C37.7823 8.53236 37.8568 8.70143 37.8863 8.88067C38.1566 8.98481 38.446 9.03211 38.7358 9.01953C38.6977 9.23125 38.7394 9.44943 38.853 9.63285L39.2104 9.21626C39.0074 9.07586 38.8118 8.92522 38.6245 8.76495L36.5388 7.02915L36.8083 6.71092L40.552 9.81222L40.3001 10.1131L39.7904 9.6965L38.3843 11.3802L38.1148 11.1256L38.0328 10.628L38.3667 10.2404C38.4519 10.1498 38.5247 10.0486 38.5835 9.93951C38.6168 9.86886 38.6285 9.79012 38.617 9.71301C38.6056 9.6359 38.5715 9.56378 38.5191 9.50556L37.7985 9.29148C37.7441 9.18879 37.6971 9.08245 37.6579 8.97325C37.6337 8.88799 37.5983 8.80628 37.5524 8.73023C37.4812 8.62186 37.392 8.52603 37.2888 8.44672C37.1742 8.34761 37.0378 8.27628 36.8904 8.23842C36.8178 8.21764 36.7406 8.21865 36.6686 8.24132C36.5966 8.26398 36.5331 8.30729 36.4861 8.36572C36.4155 8.44152 36.3759 8.54046 36.3748 8.64344C36.3752 8.6936 36.387 8.74302 36.4093 8.78808C36.4316 8.83314 36.4639 8.87268 36.5037 8.90381L36.533 8.92117Z" fill="#29A74A"/>
<path d="M41.05 11.1372L39.3803 12.5779L39.1928 12.3696C39.2066 12.1888 39.1807 12.0072 39.1167 11.8373L40.5637 10.5875L40.0658 10.0089L40.3587 9.75436L40.8684 10.333L41.2199 10.0321L41.4132 10.2404L41.2551 10.7669L41.8409 11.4381L41.5421 11.6927L41.05 11.1372Z" fill="#29A74A"/>
<path d="M42.4854 13.0061C42.3685 12.8927 42.2289 12.8048 42.0755 12.7479C41.9221 12.6911 41.7584 12.6667 41.5949 12.6763C41.2989 12.629 40.9953 12.6756 40.7278 12.8094C40.5696 12.9193 40.5286 13.0292 40.5989 13.145C40.6871 13.1768 40.7804 13.1924 40.8743 13.1912C40.9484 13.2051 41.0186 13.2344 41.0803 13.2773C41.1419 13.3203 41.1935 13.3757 41.2316 13.44C41.3044 13.5393 41.3434 13.6589 41.3429 13.7814C41.3462 13.8399 41.3351 13.8984 41.3106 13.9517C41.2862 14.0051 41.249 14.0519 41.2023 14.0881C41.1485 14.1254 41.0864 14.1496 41.0212 14.1587C40.956 14.1677 40.8896 14.1614 40.8274 14.1401C40.6484 14.0833 40.4951 13.9667 40.3938 13.8103C40.2356 13.6116 40.1564 13.3626 40.1712 13.1102C40.1909 12.9917 40.2361 12.8786 40.3038 12.7788C40.3715 12.679 40.4602 12.5947 40.5637 12.5316C40.7511 12.3877 40.9661 12.2827 41.1957 12.223C41.4252 12.1634 41.6647 12.1503 41.8995 12.1845L41.3137 11.3687L41.6359 11.143L43.1767 13.2549L42.8545 13.4863L42.4854 13.0061Z" fill="#29A74A"/>
<path d="M43.5107 14.6667L42.6611 15.0775V15.1932C43.2088 15.5598 43.7172 15.9805 44.1785 16.4488V17.2183C44.0204 17.0818 43.8256 16.9933 43.6178 16.9635C43.4099 16.9338 43.1977 16.964 43.0068 17.0505C42.791 17.1705 42.6127 17.3466 42.4912 17.5597L42.2803 17.1142C42.4713 16.8429 42.7216 16.6174 43.0127 16.4546C43.1361 16.4 43.266 16.3611 43.3993 16.3388C43.0057 15.9215 42.5263 15.5921 41.9933 15.3726L41.8995 14.6204L43.1826 13.9839L42.7783 13.1855L43.1298 13.0119L45.3268 17.3456L44.9695 17.5192L43.5107 14.6667ZM45.8834 21.2859L43.786 21.7892L43.6864 21.4421L43.8739 20.9734L44.7 20.8056C44.9023 20.7696 45.0907 20.6796 45.2448 20.5453C45.4191 20.3409 45.5163 20.0833 45.5202 19.8162C45.4937 19.7645 45.4643 19.7143 45.4323 19.6658C45.3854 19.6021 45.3503 19.5674 45.321 19.5616C45.2917 19.5558 45.2272 19.6426 45.2038 19.741C45.1804 19.8394 45.1218 20.0419 45.0983 20.1055C45.0827 20.1557 45.0555 20.2017 45.0189 20.2398C44.9823 20.278 44.9373 20.3072 44.8874 20.3254C44.6648 20.3794 44.5183 20.2695 44.448 19.9956C44.4305 19.8863 44.4305 19.775 44.448 19.6658C44.5125 19.5558 44.5886 19.417 44.6707 19.2434C44.5932 19.1588 44.5045 19.0848 44.407 19.0235C44.2677 18.9322 44.1659 18.7947 44.12 18.6359C44.0965 18.5272 44.0965 18.4148 44.12 18.3061C44.12 18.1614 44.2078 18.0804 44.3016 18.0573C44.3953 18.0341 44.6179 18.1036 44.8113 18.3003C44.9314 18.441 45.0715 18.5638 45.2272 18.6648L45.0866 18.0862C45.1969 17.93 45.2912 17.7633 45.3678 17.5886C45.4591 17.9003 45.4889 18.2263 45.4557 18.5491C45.4557 18.6764 45.4147 18.7921 45.403 18.8905C45.63 19.1414 45.8302 19.4148 46.0006 19.7063C45.8245 19.9809 45.6754 20.2715 45.5553 20.5742L46.0826 20.4527L46.4458 21.9108L46.0592 22.0033L45.8834 21.2859Z" fill="#29A74A"/>
<path d="M49.2228 24.7285C49.2228 29.4593 47.8024 34.0839 45.1411 38.0174C42.4798 41.9509 38.6972 45.0167 34.2716 46.8271C29.8461 48.6375 24.9763 49.1112 20.2781 48.1883C15.58 47.2653 11.2645 44.9872 7.87728 41.6421C4.4901 38.2969 2.1834 34.0349 1.24888 29.395C0.314357 24.7551 0.793988 19.9457 2.62712 15.575C4.46025 11.2043 7.56454 7.46862 11.5474 4.84033C15.5303 2.21204 20.213 0.809194 25.0032 0.809194C31.4242 0.81685 37.5801 3.33937 42.1205 7.82346C46.6609 12.3075 49.2151 18.3871 49.2228 24.7285ZM25.0032 0.0338695C20.0603 0.0327257 15.228 1.4791 11.1174 4.19011C7.00683 6.90111 3.80249 10.755 1.90959 15.2645C0.0166851 19.7739 -0.479779 24.7365 0.48297 29.5246C1.44572 34.3127 3.82445 38.7114 7.31838 42.1644C10.8123 45.6174 15.2645 47.9698 20.1121 48.9239C24.9596 49.8781 29.9848 49.3913 34.5522 47.525C39.1197 45.6588 43.0242 42.4969 45.7721 38.4392C48.5201 34.3815 49.988 29.6101 49.9903 24.7285C49.9857 18.1835 47.3522 11.9076 42.6677 7.27797C37.9832 2.64832 31.6304 0.0430625 25.0032 0.0338695Z" fill="#399A48"/>
<path d="M18.0958 12.3581C17.9201 12.2597 17.2405 12.1324 17.0413 12.3581C16.8421 12.5837 17.1526 13.1507 17.0998 13.4342C16.719 13.5558 16.3734 14.0939 16.1918 14.4294C15.893 14.9791 15.9633 15.2858 16.5374 15.5866C16.9304 15.7552 17.312 15.9485 17.6799 16.1652C18.0639 16.4568 18.4987 16.6765 18.9629 16.8133C19.0622 17.0077 19.1183 17.2208 19.1274 17.4383C19.1365 17.6559 19.0984 17.8728 19.0156 18.0746C18.6189 18.0514 18.2214 18.1024 17.8439 18.2251C17.4455 18.3929 17.4221 18.7574 17.1467 19.0582C16.8714 19.3591 16.5609 19.4054 16.3148 19.8336C16.1105 20.1368 16.0213 20.5016 16.0629 20.8635C16.3148 21.6214 17.6916 21.5983 18.3009 21.9628C19.2031 22.5067 18.6231 23.311 18.2364 23.9648C17.8498 24.6186 17.9494 25.2261 18.3536 26.013C18.7655 26.6415 19.0832 27.3256 19.2968 28.0439C19.6015 29.5483 18.916 31.8974 20.328 32.9099C20.6736 33.1587 21.154 33.3497 21.406 32.9099C21.6051 32.5801 21.6579 33.0257 21.9215 32.7479C22.2965 32.3487 22.068 32.3834 22.1793 32.6438C22.3961 33.1414 22.4839 32.8521 23.0581 32.7074C23.6322 32.5628 23.8021 32.4876 24.2298 32.8579C24.6575 33.2282 24.8977 33.4943 25.2492 32.962C25.5187 32.557 25.425 31.9379 25.6886 31.5444C25.9523 31.151 26.2745 31.4114 26.7139 31.5444C26.8135 31.5444 26.7959 31.5792 26.8779 31.637C27.54 31.637 27.2822 31.0584 27.704 30.8328C28.2371 30.555 28.5477 31.3535 28.8289 30.6881C29.1745 29.8896 28.5477 28.4084 30.0768 28.7845C31.0141 29.0102 31.4418 30.0227 31.6293 30.8733C31.7523 31.4519 31.7582 32.0015 31.8988 32.5512C32.0713 33.0741 32.1891 33.6131 32.2503 34.1597C32.2963 34.8122 32.4202 35.4569 32.6194 36.0807C33.3517 36.0459 32.9123 35.1202 33.3342 34.8251C33.756 34.53 34.5996 34.9929 35.1386 34.9061C35.1855 34.4328 35.1855 33.9561 35.1386 33.4828C35.0566 32.9909 34.8164 32.6033 34.7754 32.0999C34.6875 31.1684 34.916 30.1732 34.7754 29.2416C34.6348 28.3101 34.1309 27.5232 33.9142 26.6495C33.7793 25.7739 33.5716 24.9108 33.2932 24.0689C33.0881 23.5945 32.8713 23.4903 32.3323 23.5655C32.016 24.3929 32.1097 25.1625 31.641 25.9494C31.1723 26.7363 30.6158 27.4942 29.737 26.4585C29.4466 26.0221 29.1919 25.5636 28.9753 25.0873C28.7201 24.7084 28.5558 24.277 28.4949 23.8259C28.4363 22.8481 29.1921 22.2405 30.0475 21.986C30.7974 21.7603 30.8384 21.5347 31.4067 21.066C31.7816 20.7478 32.3265 20.6552 32.7483 20.3485C33.4572 19.8451 32.8948 19.3765 33.1936 18.74C33.3986 18.3003 34.3653 18.2945 34.3301 17.7911C33.9786 17.5944 33.7911 17.2588 33.4103 17.0679C33.0816 16.8657 32.7183 16.7245 32.3382 16.6513C31.9725 16.5717 31.5918 16.5917 31.2368 16.7091C30.9246 16.863 30.5966 16.9833 30.2584 17.0679C29.4323 17.0679 29.0866 15.8297 28.2723 16.6976C28.0321 16.9521 27.9911 17.2299 27.6864 17.4382C27.3302 17.6397 26.9252 17.7418 26.5147 17.7333C26.1208 17.7806 25.7297 17.8482 25.343 17.9358C24.9131 17.9653 24.4834 17.8772 24.1009 17.6812C23.0464 17.2877 23.1518 16.8538 23.1518 15.7718C23.1518 15.1353 23.1518 13.631 22.3258 13.5847C21.7399 13.5558 21.9508 13.9839 21.6169 14.2154C21.2829 14.4468 20.8084 14.1228 20.6385 13.9203C20.2694 13.4342 20.4569 12.549 19.5956 12.4911C18.7344 12.4333 18.5938 13.3417 18.0431 12.3581" fill="#FFCB05"/>
<path d="M4.97244 27.6562L5.49386 29.2358H7.18115L5.81609 30.2137L6.33751 31.7932L4.97244 30.8154L3.61323 31.7932L4.13465 30.2137L2.76959 29.2358H4.45688L4.97244 27.6562ZM8.47005 35.0913L8.98562 36.6708H10.6729L9.3137 37.6487L9.82926 39.2283L8.47005 38.2504L7.10499 39.2283L7.62641 37.6487L6.2672 36.6708H7.94864L8.47005 35.0913ZM41.5363 35.0103L42.0577 36.5956H43.7391L42.3741 37.5735L42.8955 39.153L41.5363 38.1752L40.1712 39.153L40.6926 37.5735L39.3334 36.5956H41.0149L41.5363 35.0103ZM45.3385 27.4248L45.86 29.0044H47.5414L46.1822 29.9822L46.6978 31.5618L45.3385 30.584L43.9793 31.5618L44.4949 29.9822L43.1357 29.0044H44.8171L45.3385 27.4248Z" fill="#ED1C24"/>
</g>
<defs>
<clipPath id="clip0_13_495">
<rect width="50" height="50" fill="white"/>
</clipPath>
</defs>
</svg>
